<svg xmlns="http://www.w3.org/2000/svg" width="1200" height="630" viewBox="0 0 1200 630" role="img" aria-labelledby="title description">
  <title id="title">Progresifo social preview</title>
  <desc id="description">A branded piano chord progression learning preview.</desc>
  <defs>
    <linearGradient id="background" x1="0" x2="1" y1="0" y2="1">
      <stop offset="0" stop-color="#101418" />
      <stop offset="0.5" stop-color="#172021" />
      <stop offset="1" stop-color="#0b1012" />
    </linearGradient>
    <linearGradient id="title-fill" x1="0" x2="1" y1="0" y2="0">
      <stop offset="0" stop-color="#fff6e6" />
      <stop offset="0.68" stop-color="#f9ead0" />
      <stop offset="0.69" stop-color="#43d8c9" />
      <stop offset="1" stop-color="#27b7a8" />
    </linearGradient>
    <linearGradient id="key-glow-teal" x1="0" x2="0" y1="0" y2="1">
      <stop offset="0" stop-color="#80fff0" />
      <stop offset="1" stop-color="#1aa499" />
    </linearGradient>
    <linearGradient id="key-glow-amber" x1="0" x2="0" y1="0" y2="1">
      <stop offset="0" stop-color="#ffd77a" />
      <stop offset="1" stop-color="#c98625" />
    </linearGradient>
    <linearGradient id="key-glow-green" x1="0" x2="0" y1="0" y2="1">
      <stop offset="0" stop-color="#ccefa4" />
      <stop offset="1" stop-color="#6fa15a" />
    </linearGradient>
    <filter id="soft-shadow" color-interpolation-filters="sRGB" x="-20%" y="-20%" width="140%" height="150%">
      <feDropShadow dx="0" dy="16" stdDeviation="18" flood-color="#000000" flood-opacity="0.42" />
    </filter>
    <filter id="glow" color-interpolation-filters="sRGB" x="-80%" y="-80%" width="260%" height="260%">
      <feGaussianBlur stdDeviation="8" result="blur" />
      <feMerge>
        <feMergeNode in="blur" />
        <feMergeNode in="SourceGraphic" />
      </feMerge>
    </filter>
  </defs>

  <rect width="1200" height="630" fill="url(#background)" />
  <path d="M0 116 C160 38 230 30 350 92 C487 164 587 125 700 78 C844 18 982 30 1200 108" fill="none" stroke="#f5b452" stroke-width="2" opacity="0.26" />
  <path d="M18 440 C184 352 321 330 477 394 C624 454 718 454 850 396 C993 332 1087 344 1200 418" fill="none" stroke="#4fd7c7" stroke-width="2" opacity="0.22" />
  <path d="M28 470 C168 424 295 408 429 456 C601 518 771 520 948 454 C1042 419 1136 420 1200 452" fill="none" stroke="#ffd166" stroke-width="2" opacity="0.18" />

  <g opacity="0.36">
    <circle cx="76" cy="88" r="3" fill="#62e0d1" />
    <circle cx="107" cy="88" r="3" fill="#62e0d1" />
    <circle cx="138" cy="88" r="3" fill="#62e0d1" />
    <circle cx="76" cy="119" r="3" fill="#92c772" />
    <circle cx="107" cy="119" r="3" fill="#92c772" />
    <circle cx="138" cy="119" r="3" fill="#92c772" />
    <circle cx="76" cy="150" r="3" fill="#f6b645" />
    <circle cx="107" cy="150" r="3" fill="#f6b645" />
    <circle cx="138" cy="150" r="3" fill="#f6b645" />
  </g>

  <g transform="translate(80 185)">
    <rect x="0" y="0" width="34" height="76" rx="17" fill="#42d0c2" opacity="0.88" />
    <rect x="50" y="-24" width="34" height="100" rx="17" fill="#9acc75" opacity="0.9" />
    <rect x="100" y="-58" width="34" height="134" rx="17" fill="#f6bf48" opacity="0.94" />
    <rect x="150" y="-88" width="34" height="164" rx="17" fill="#ef7a2b" opacity="0.94" />
  </g>

  <g transform="translate(660 42)" filter="url(#soft-shadow)">
    <path d="M82 55 C158 46 215 88 267 107 C326 129 391 126 466 82" fill="none" stroke="#f4bc55" stroke-width="7" stroke-linecap="round" />
    <path d="M0 82 C40 52 77 43 120 55" fill="none" stroke="#64d7c9" stroke-width="7" stroke-linecap="round" />
    <circle cx="0" cy="82" r="52" fill="#2d807d" stroke="#baf7ef" stroke-width="5" />
    <circle cx="158" cy="55" r="52" fill="#5d8a46" stroke="#d5f4bd" stroke-width="5" />
    <circle cx="316" cy="116" r="52" fill="#b77722" stroke="#ffe19b" stroke-width="5" />
    <circle cx="466" cy="82" r="52" fill="#d96b23" stroke="#ffd69b" stroke-width="5" />
    <circle cx="82" cy="55" r="10" fill="#9fe1a0" />
    <circle cx="240" cy="107" r="10" fill="#ffd166" />
    <text x="0" y="95" text-anchor="middle" font-family="Inter, Arial, sans-serif" font-size="43" font-weight="800" fill="#fffaf0">C</text>
    <text x="158" y="69" text-anchor="middle" font-family="Inter, Arial, sans-serif" font-size="38" font-weight="800" fill="#fffaf0">Am</text>
    <text x="316" y="130" text-anchor="middle" font-family="Inter, Arial, sans-serif" font-size="43" font-weight="800" fill="#fffaf0">F</text>
    <text x="466" y="95" text-anchor="middle" font-family="Inter, Arial, sans-serif" font-size="43" font-weight="800" fill="#fffaf0">G</text>
  </g>

  <g transform="translate(72 282)">
    <text font-family="Inter, Arial, sans-serif" font-size="126" font-weight="900" fill="url(#title-fill)">Progresifo</text>
    <text y="74" font-family="Inter, Arial, sans-serif" font-size="34" font-weight="650" fill="#d8e2dc">Interactive piano chord and progression practice</text>
  </g>

  <g transform="translate(0 434)" filter="url(#soft-shadow)">
    <rect x="0" y="0" width="1200" height="18" fill="#151a1d" />
    <g>
      <rect x="0" y="18" width="75" height="152" fill="#fbf4e8" stroke="#d6d0c4" />
      <rect x="75" y="18" width="75" height="152" fill="#f4eadb" stroke="#d6d0c4" />
      <rect x="150" y="18" width="75" height="152" fill="#fbf4e8" stroke="#d6d0c4" />
      <rect x="225" y="18" width="75" height="152" fill="url(#key-glow-teal)" stroke="#d6d0c4" />
      <rect x="300" y="18" width="75" height="152" fill="#fbf4e8" stroke="#d6d0c4" />
      <rect x="375" y="18" width="75" height="152" fill="url(#key-glow-green)" stroke="#d6d0c4" />
      <rect x="450" y="18" width="75" height="152" fill="#fbf4e8" stroke="#d6d0c4" />
      <rect x="525" y="18" width="75" height="152" fill="#f4eadb" stroke="#d6d0c4" />
      <rect x="600" y="18" width="75" height="152" fill="#fbf4e8" stroke="#d6d0c4" />
      <rect x="675" y="18" width="75" height="152" fill="url(#key-glow-amber)" stroke="#d6d0c4" />
      <rect x="750" y="18" width="75" height="152" fill="#fbf4e8" stroke="#d6d0c4" />
      <rect x="825" y="18" width="75" height="152" fill="#f4eadb" stroke="#d6d0c4" />
      <rect x="900" y="18" width="75" height="152" fill="#fbf4e8" stroke="#d6d0c4" />
      <rect x="975" y="18" width="75" height="152" fill="url(#key-glow-amber)" stroke="#d6d0c4" />
      <rect x="1050" y="18" width="75" height="152" fill="#fbf4e8" stroke="#d6d0c4" />
      <rect x="1125" y="18" width="75" height="152" fill="#f4eadb" stroke="#d6d0c4" />
    </g>
    <g fill="#11171a">
      <rect x="52" y="18" width="42" height="94" rx="4" />
      <rect x="127" y="18" width="42" height="94" rx="4" />
      <rect x="277" y="18" width="42" height="94" rx="4" />
      <rect x="352" y="18" width="42" height="94" rx="4" />
      <rect x="427" y="18" width="42" height="94" rx="4" />
      <rect x="577" y="18" width="42" height="94" rx="4" />
      <rect x="652" y="18" width="42" height="94" rx="4" />
      <rect x="802" y="18" width="42" height="94" rx="4" />
      <rect x="877" y="18" width="42" height="94" rx="4" />
      <rect x="952" y="18" width="42" height="94" rx="4" />
      <rect x="1102" y="18" width="42" height="94" rx="4" />
    </g>
    <rect x="0" y="18" width="1200" height="32" fill="#ffffff" opacity="0.12" />
  </g>

  <circle cx="1010" cy="354" r="80" fill="#f6b645" opacity="0.08" filter="url(#glow)" />
  <circle cx="236" cy="434" r="95" fill="#42d0c2" opacity="0.08" filter="url(#glow)" />
</svg>
